<svg version="1.1" id="Layer_1" xmlns="http://www.w3.org/2000/svg" xmlns:xlink="http://www.w3.org/1999/xlink" x="0px" y="0px"
	 width="100%" viewBox="0 0 262 237" enable-background="new 0 0 262 237" xml:space="preserve">
<path fill="#FFFFFF" opacity="1.000000" stroke="none" 
	d="
M75.000000,238.000000 
	C50.393093,238.000000 25.786188,238.000000 1.000000,238.000000 
	C1.000000,202.645981 1.000000,167.291641 1.355474,131.563263 
	C2.690926,133.191528 3.558616,135.258499 4.668253,137.186188 
	C15.757215,156.450058 26.853085,175.710281 38.090374,194.887527 
	C38.723499,195.967987 40.609451,196.906311 41.916817,196.912216 
	C67.906662,197.029770 93.897285,197.028046 119.887222,196.920334 
	C121.246864,196.914703 123.052498,196.103683 123.864433,195.057541 
	C125.526878,192.915558 126.630241,190.344421 128.006622,187.974838 
	C136.096298,174.047714 144.234283,160.148499 152.284256,146.198471 
	C158.242569,135.873138 164.175125,125.530945 169.943039,115.098885 
	C171.891937,111.574051 171.877533,107.696159 168.994019,104.643600 
	C165.906784,101.375404 162.366592,98.535072 159.064682,95.544746 
	C158.115112,96.447456 157.646744,96.728989 157.408127,97.142967 
	C143.333191,121.561684 129.312775,146.012070 115.121040,170.362610 
	C114.360863,171.666946 112.181366,172.873245 110.650597,172.888062 
	C92.658943,173.062363 74.663712,172.891281 56.672897,173.104355 
	C53.585186,173.140900 52.304298,171.785965 51.036507,169.516220 
	C47.976990,164.038666 44.798271,158.627838 41.682697,153.181473 
	C35.842789,142.972610 29.948746,132.793442 24.261656,122.500031 
	C23.548122,121.208565 23.274040,118.921539 23.939077,117.737778 
	C30.487062,106.082451 37.287216,94.568985 43.995979,83.003754 
	C57.656368,59.454617 71.352448,35.925888 84.906273,12.315530 
	C86.955704,8.745483 88.319214,4.781674 90.000000,1.000000 
	C98.354233,1.000000 106.708466,1.000000 115.529243,1.371785 
	C109.652985,12.934657 103.376427,24.163944 96.950546,35.307125 
	C88.982903,49.123901 80.881424,62.863449 72.856514,76.647278 
	C64.912262,90.292572 56.937023,103.920662 49.154171,117.657608 
	C48.465633,118.872902 48.522041,121.157303 49.212284,122.401634 
	C53.666119,130.430740 58.359055,138.328537 63.049984,146.223999 
	C64.453880,148.586914 65.941101,150.412994 69.459869,150.131134 
	C75.418343,149.653854 81.442772,150.000000 88.129730,150.000000 
	C82.915207,140.897766 78.019005,132.065338 72.799698,123.428146 
	C71.375717,121.071678 71.059952,119.371666 72.476608,116.931931 
	C80.563080,103.005524 88.461937,88.970367 96.497772,75.014328 
	C106.058861,58.409321 115.772438,41.891449 125.226837,25.226274 
	C126.990074,22.118248 128.931778,20.889561 132.571304,20.914080 
	C157.059967,21.079060 181.550262,21.000000 206.040039,21.000000 
	C207.623886,21.000000 209.207718,21.000000 211.476456,21.000000 
	C208.228455,14.046509 203.498993,9.437655 197.592712,6.376614 
	C193.026199,4.009939 187.885452,2.751265 183.000000,0.999999 
	C209.605453,1.000000 236.210892,1.000000 263.000000,1.000000 
	C263.000000,37.687355 263.000000,74.375023 262.635406,111.412445 
	C261.259430,109.062668 260.549988,106.198555 259.183960,103.692322 
	C253.561325,93.376587 247.764404,83.155342 241.982834,72.926895 
	C236.991806,64.097054 232.029861,55.247559 226.818115,46.548714 
	C225.895477,45.008770 223.817825,43.161331 222.260742,43.149563 
	C194.948715,42.943073 167.634705,43.000317 140.496689,43.000317 
	C134.713562,53.185738 129.131958,63.177910 123.396500,73.080971 
	C114.031563,89.250824 104.886047,105.562599 94.979736,121.396431 
	C91.228050,127.392960 92.547882,131.757156 96.180794,136.541275 
	C97.461006,138.227158 98.742432,139.913132 100.065361,141.565384 
	C103.830170,146.267349 104.015198,146.246689 106.991898,141.062653 
	C121.169960,116.371048 135.348862,91.679939 149.520935,67.000000 
	C168.728378,67.000000 187.717575,67.119720 206.702332,66.883141 
	C209.897690,66.843323 211.541000,68.219070 212.838684,70.468521 
	C221.931229,86.229851 230.964600,102.025543 239.926041,117.861671 
	C240.437485,118.765480 240.631897,120.390785 240.163574,121.225906 
	C232.761154,134.426331 225.285461,147.586731 217.707840,160.687637 
	C204.807785,182.990463 191.787033,205.223557 178.916733,227.543488 
	C176.999451,230.868484 175.625366,234.506683 174.000000,238.000000 
	C165.645767,238.000000 157.291534,238.000000 148.470764,237.628204 
	C149.072891,235.292221 150.106705,233.308105 151.215744,231.367004 
	C160.559937,215.012177 169.835663,198.617493 179.292801,182.328171 
	C190.775299,162.550293 202.490616,142.906937 213.847763,123.058075 
	C214.805405,121.384384 214.568787,118.193047 213.603973,116.395378 
	C208.961563,107.745415 203.910446,99.313004 198.901993,90.864075 
	C198.409576,90.033386 197.230515,89.107437 196.351288,89.088188 
	C189.620758,88.940796 182.885544,89.007278 175.946762,89.007278 
	C176.069672,90.271172 175.931595,91.032455 176.225388,91.547348 
	C181.166245,100.207230 186.025177,108.919853 191.244751,117.410240 
	C192.460739,119.388214 192.383362,120.525963 191.314529,122.320580 
	C187.776413,128.261292 184.408234,134.303131 180.968414,140.302475 
	C166.634537,165.302048 152.297302,190.299698 137.964401,215.299805 
	C136.412933,218.005966 134.401169,219.132996 130.986572,219.107422 
	C104.853790,218.911728 78.718872,219.000000 50.899075,219.000000 
	C54.791451,223.246475 57.495991,227.133881 61.081234,229.865311 
	C65.324013,233.097717 70.326698,235.332687 75.000000,238.000000 
z"/>
<path fill="#171717" opacity="1.000000" stroke="none" 
	d="
M89.539368,1.000000 
	C88.319214,4.781674 86.955704,8.745483 84.906273,12.315530 
	C71.352448,35.925888 57.656368,59.454617 43.995979,83.003754 
	C37.287216,94.568985 30.487062,106.082451 23.939077,117.737778 
	C23.274040,118.921539 23.548122,121.208565 24.261656,122.500031 
	C29.948746,132.793442 35.842789,142.972610 41.682697,153.181473 
	C44.798271,158.627838 47.976990,164.038666 51.036507,169.516220 
	C52.304298,171.785965 53.585186,173.140900 56.672897,173.104355 
	C74.663712,172.891281 92.658943,173.062363 110.650597,172.888062 
	C112.181366,172.873245 114.360863,171.666946 115.121040,170.362610 
	C129.312775,146.012070 143.333191,121.561684 157.408127,97.142967 
	C157.646744,96.728989 158.115112,96.447456 159.064682,95.544746 
	C162.366592,98.535072 165.906784,101.375404 168.994019,104.643600 
	C171.877533,107.696159 171.891937,111.574051 169.943039,115.098885 
	C164.175125,125.530945 158.242569,135.873138 152.284256,146.198471 
	C144.234283,160.148499 136.096298,174.047714 128.006622,187.974838 
	C126.630241,190.344421 125.526878,192.915558 123.864433,195.057541 
	C123.052498,196.103683 121.246864,196.914703 119.887222,196.920334 
	C93.897285,197.028046 67.906662,197.029770 41.916817,196.912216 
	C40.609451,196.906311 38.723499,195.967987 38.090374,194.887527 
	C26.853085,175.710281 15.757215,156.450058 4.668253,137.186188 
	C3.558616,135.258499 2.690926,133.191528 1.355474,131.094604 
	C1.000000,123.979050 1.000000,116.958107 1.356005,109.373550 
	C4.594405,103.268204 7.280591,97.613518 10.393974,92.204750 
	C22.356203,71.423180 34.394623,50.684742 46.542229,30.011070 
	C49.966049,24.184168 53.512257,18.365822 57.625881,13.023709 
	C62.712540,6.417980 70.661964,4.099990 78.000000,1.000000 
	C81.692909,1.000000 85.385818,1.000000 89.539368,1.000000 
z"/>
<path fill="#171717" opacity="1.000000" stroke="none" 
	d="
M174.463165,238.000000 
	C175.625366,234.506683 176.999451,230.868484 178.916733,227.543488 
	C191.787033,205.223557 204.807785,182.990463 217.707840,160.687637 
	C225.285461,147.586731 232.761154,134.426331 240.163574,121.225906 
	C240.631897,120.390785 240.437485,118.765480 239.926041,117.861671 
	C230.964600,102.025543 221.931229,86.229851 212.838684,70.468521 
	C211.541000,68.219070 209.897690,66.843323 206.702332,66.883141 
	C187.717575,67.119720 168.728378,67.000000 149.520935,67.000000 
	C135.348862,91.679939 121.169960,116.371048 106.991898,141.062653 
	C104.015198,146.246689 103.830170,146.267349 100.065361,141.565384 
	C98.742432,139.913132 97.461006,138.227158 96.180794,136.541275 
	C92.547882,131.757156 91.228050,127.392960 94.979736,121.396431 
	C104.886047,105.562599 114.031563,89.250824 123.396500,73.080971 
	C129.131958,63.177910 134.713562,53.185738 140.496689,43.000317 
	C167.634705,43.000317 194.948715,42.943073 222.260742,43.149563 
	C223.817825,43.161331 225.895477,45.008770 226.818115,46.548714 
	C232.029861,55.247559 236.991806,64.097054 241.982834,72.926895 
	C247.764404,83.155342 253.561325,93.376587 259.183960,103.692322 
	C260.549988,106.198555 261.259430,109.062668 262.635406,111.881104 
	C263.000000,117.354927 263.000000,122.709862 262.639832,128.631149 
	C257.038788,139.110489 252.020844,149.149429 246.507385,158.908417 
	C237.084030,175.587936 227.197357,192.005966 217.795761,208.697449 
	C210.486267,221.674637 202.709076,233.947144 187.000000,238.000000 
	C182.975449,238.000000 178.950912,238.000000 174.463165,238.000000 
z"/>
<path fill="#171717" opacity="1.000000" stroke="none" 
	d="
M182.531342,0.999999 
	C187.885452,2.751265 193.026199,4.009939 197.592712,6.376614 
	C203.498993,9.437655 208.228455,14.046509 211.476456,21.000000 
	C209.207718,21.000000 207.623886,21.000000 206.040039,21.000000 
	C181.550262,21.000000 157.059967,21.079060 132.571304,20.914080 
	C128.931778,20.889561 126.990074,22.118248 125.226837,25.226274 
	C115.772438,41.891449 106.058861,58.409321 96.497772,75.014328 
	C88.461937,88.970367 80.563080,103.005524 72.476608,116.931931 
	C71.059952,119.371666 71.375717,121.071678 72.799698,123.428146 
	C78.019005,132.065338 82.915207,140.897766 88.129730,150.000000 
	C81.442772,150.000000 75.418343,149.653854 69.459869,150.131134 
	C65.941101,150.412994 64.453880,148.586914 63.049984,146.223999 
	C58.359055,138.328537 53.666119,130.430740 49.212284,122.401634 
	C48.522041,121.157303 48.465633,118.872902 49.154171,117.657608 
	C56.937023,103.920662 64.912262,90.292572 72.856514,76.647278 
	C80.881424,62.863449 88.982903,49.123901 96.950546,35.307125 
	C103.376427,24.163944 109.652985,12.934657 115.997894,1.371785 
	C138.020889,1.000000 160.041794,1.000000 182.531342,0.999999 
z"/>
<path fill="#171717" opacity="1.000000" stroke="none" 
	d="
M75.468658,238.000000 
	C70.326698,235.332687 65.324013,233.097717 61.081234,229.865311 
	C57.495991,227.133881 54.791451,223.246475 50.899075,219.000000 
	C78.718872,219.000000 104.853790,218.911728 130.986572,219.107422 
	C134.401169,219.132996 136.412933,218.005966 137.964401,215.299805 
	C152.297302,190.299698 166.634537,165.302048 180.968414,140.302475 
	C184.408234,134.303131 187.776413,128.261292 191.314529,122.320580 
	C192.383362,120.525963 192.460739,119.388214 191.244751,117.410240 
	C186.025177,108.919853 181.166245,100.207230 176.225388,91.547348 
	C175.931595,91.032455 176.069672,90.271172 175.946762,89.007278 
	C182.885544,89.007278 189.620758,88.940796 196.351288,89.088188 
	C197.230515,89.107437 198.409576,90.033386 198.901993,90.864075 
	C203.910446,99.313004 208.961563,107.745415 213.603973,116.395378 
	C214.568787,118.193047 214.805405,121.384384 213.847763,123.058075 
	C202.490616,142.906937 190.775299,162.550293 179.292801,182.328171 
	C169.835663,198.617493 160.559937,215.012177 151.215744,231.367004 
	C150.106705,233.308105 149.072891,235.292221 148.002106,237.628204 
	C123.979103,238.000000 99.958214,238.000000 75.468658,238.000000 
z"/>
<path fill="#FFFFFF" opacity="1.000000" stroke="none" 
	d="
M77.531342,1.000000 
	C70.661964,4.099990 62.712540,6.417980 57.625881,13.023709 
	C53.512257,18.365822 49.966049,24.184168 46.542229,30.011070 
	C34.394623,50.684742 22.356203,71.423180 10.393974,92.204750 
	C7.280591,97.613518 4.594405,103.268204 1.356005,108.904968 
	C1.000000,73.085327 1.000000,37.170662 1.000000,1.000000 
	C26.353653,1.000000 51.708168,1.000000 77.531342,1.000000 
z"/>
<path fill="#FFFFFF" opacity="1.000000" stroke="none" 
	d="
M187.468658,238.000000 
	C202.709076,233.947144 210.486267,221.674637 217.795761,208.697449 
	C227.197357,192.005966 237.084030,175.587936 246.507385,158.908417 
	C252.020844,149.149429 257.038788,139.110489 262.639832,129.098755 
	C263.000000,165.247208 263.000000,201.494431 263.000000,238.000000 
	C237.979706,238.000000 212.958511,238.000000 187.468658,238.000000 
z"/>
</svg>